<svg xmlns="http://www.w3.org/2000/svg" viewBox="0 0 1400 1050" width="1400" height="1050" role="img">
  <defs>
    <linearGradient id="wall-imagesdininglimonaiasvg" x1="0.07" y1="0" x2="0.9" y2="1">
      <stop offset="0%" stop-color="#ded5c6"/>
      <stop offset="100%" stop-color="#bdb2a0"/>
    </linearGradient>
    <linearGradient id="sky-imagesdininglimonaiasvg" x1="0" y1="0" x2="0" y2="1">
      <stop offset="0%" stop-color="#d7e2e0"/>
      <stop offset="62%" stop-color="#bcc9c6"/>
      <stop offset="100%" stop-color="#f3f6f2"/>
    </linearGradient>
    <linearGradient id="spill-imagesdininglimonaiasvg" x1="0" y1="0" x2="0" y2="1">
      <stop offset="0%" stop-color="#fbf3e2" stop-opacity="0.3"/>
      <stop offset="100%" stop-color="#fbf3e2" stop-opacity="0"/>
    </linearGradient>
    <radialGradient id="halo-imagesdininglimonaiasvg" cx="0.472" cy="0.420" r="0.66">
      <stop offset="0%" stop-color="#fbf3e2" stop-opacity="0.32"/>
      <stop offset="100%" stop-color="#fbf3e2" stop-opacity="0"/>
    </radialGradient>
    <radialGradient id="vig-imagesdininglimonaiasvg" cx="0.5" cy="0.5" r="0.78">
      <stop offset="46%" stop-color="#000000" stop-opacity="0"/>
      <stop offset="100%" stop-color="#000000" stop-opacity="0.42"/>
    </radialGradient>
    <!-- The view is held just off focus, the way a lens holds it. -->
    <filter id="depth-imagesdininglimonaiasvg" x="-6%" y="-6%" width="112%" height="112%">
      <feGaussianBlur stdDeviation="7.0"/>
    </filter>
    <clipPath id="opening-imagesdininglimonaiasvg">
      <rect x="181.1" y="183.1" width="959.1" height="516.3"/>
    </clipPath>
  </defs>

  <rect width="1400" height="1050" fill="url(#wall-imagesdininglimonaiasvg)"/>
  <rect width="1400" height="1050" fill="url(#halo-imagesdininglimonaiasvg)"/>

  <!-- the opening, and the place beyond it -->
  <g clip-path="url(#opening-imagesdininglimonaiasvg)" filter="url(#depth-imagesdininglimonaiasvg)">
    <rect x="181.1" y="183.1" width="959.1" height="516.3" fill="url(#sky-imagesdininglimonaiasvg)"/>
    <path d="M 181.1 487.7 L 209.3 478.8 L 237.5 468.4 L 265.7 459.6 L 293.9 453.3 L 322.1 448.5 L 350.3 444.2 L 378.6 440.9 L 406.8 440.0 L 435.0 441.6 L 463.2 443.9 L 491.4 443.8 L 519.6 440.1 L 547.8 434.5 L 576.0 430.3 L 604.2 429.8 L 632.4 432.7 L 660.6 437.3 L 688.8 442.8 L 717.0 449.8 L 745.3 459.2 L 773.5 469.9 L 801.7 479.0 L 829.9 483.6 L 858.1 483.1 L 886.3 480.1 L 914.5 477.5 L 942.7 476.8 L 970.9 477.0 L 999.1 476.7 L 1027.3 475.8 L 1055.5 475.6 L 1083.7 476.8 L 1112.0 477.9 L 1140.2 475.9 L 1140.2 699.4 L 181.1 699.4 Z" fill="#6d6659" opacity="0.92"/>
    <rect x="181.1" y="530.4" width="959.1" height="168.9" fill="#598f92" opacity="0.88"/>
  </g>
  <rect x="420.9" y="183.1" width="1.5" height="516.3" fill="#bdb2a0" opacity="0.7"/> <rect x="660.6" y="183.1" width="1.5" height="516.3" fill="#bdb2a0" opacity="0.7"/> <rect x="900.4" y="183.1" width="1.5" height="516.3" fill="#bdb2a0" opacity="0.7"/>
  <rect x="181.1" y="183.1" width="959.1" height="516.3" fill="none" stroke="#7d6a49" stroke-width="1.5" opacity="0.45"/>

  <!-- the sill -->
  <rect x="160.1" y="699.4" width="1001.1" height="10.5" fill="#fbf3e2" opacity="0.24"/>

  <!-- floor, and the light that falls across it -->
  <rect y="815" width="1400" height="235" fill="#8f8371"/>
  <path d="M 181 815 L 1140 815 L 1572 1050 L -155 1050 Z" fill="url(#spill-imagesdininglimonaiasvg)"/>
  <rect y="815" width="1400" height="1" fill="#7d6a49" opacity="0.3"/>

  <!-- foreground -->
  <rect x="924" y="702" width="434" height="113" fill="#8f8371" opacity="0.94"/>
  <rect x="924" y="702" width="434" height="1.5" fill="#fbf3e2" opacity="0.2"/>
  <rect x="840" y="443" width="2" height="372" fill="#8f8371" opacity="0.86"/>
  <circle cx="841" cy="443" r="32" fill="#fbf3e2" opacity="0.2"/>


  <rect width="1400" height="1050" fill="url(#vig-imagesdininglimonaiasvg)"/>
</svg>
