<svg xmlns="http://www.w3.org/2000/svg" viewBox="0 0 1400 1050" width="1400" height="1050" role="img">
  <defs>
    <linearGradient id="wall-imagesstaystheoldpresssvg" x1="0.38" y1="0" x2="0.9" y2="1">
      <stop offset="0%" stop-color="#3a332b"/>
      <stop offset="100%" stop-color="#211c17"/>
    </linearGradient>
    <linearGradient id="sky-imagesstaystheoldpresssvg" x1="0" y1="0" x2="0" y2="1">
      <stop offset="0%" stop-color="#e5bd8a"/>
      <stop offset="62%" stop-color="#bc9a72"/>
      <stop offset="100%" stop-color="#f7d7a4"/>
    </linearGradient>
    <linearGradient id="spill-imagesstaystheoldpresssvg" x1="0" y1="0" x2="0" y2="1">
      <stop offset="0%" stop-color="#e8d3ad" stop-opacity="0.3"/>
      <stop offset="100%" stop-color="#e8d3ad" stop-opacity="0"/>
    </linearGradient>
    <radialGradient id="halo-imagesstaystheoldpresssvg" cx="0.491" cy="0.477" r="0.66">
      <stop offset="0%" stop-color="#e8d3ad" stop-opacity="0.32"/>
      <stop offset="100%" stop-color="#e8d3ad" stop-opacity="0"/>
    </radialGradient>
    <radialGradient id="vig-imagesstaystheoldpresssvg" cx="0.5" cy="0.5" r="0.78">
      <stop offset="46%" stop-color="#000000" stop-opacity="0"/>
      <stop offset="100%" stop-color="#000000" stop-opacity="0.42"/>
    </radialGradient>
    <!-- The view is held just off focus, the way a lens holds it. -->
    <filter id="depth-imagesstaystheoldpresssvg" x="-6%" y="-6%" width="112%" height="112%">
      <feGaussianBlur stdDeviation="7.0"/>
    </filter>
    <clipPath id="opening-imagesstaystheoldpresssvg">
      <rect x="207.8" y="244.3" width="959.0" height="513.3"/>
    </clipPath>
  </defs>

  <rect width="1400" height="1050" fill="url(#wall-imagesstaystheoldpresssvg)"/>
  <rect width="1400" height="1050" fill="url(#halo-imagesstaystheoldpresssvg)"/>

  <!-- the opening, and the place beyond it -->
  <g clip-path="url(#opening-imagesstaystheoldpresssvg)" filter="url(#depth-imagesstaystheoldpresssvg)">
    <rect x="207.8" y="244.3" width="959.0" height="513.3" fill="url(#sky-imagesstaystheoldpresssvg)"/>
    <path d="M 207.8 535.8 L 236.0 528.7 L 264.2 520.7 L 292.4 513.1 L 320.6 505.6 L 348.8 497.7 L 377.0 490.3 L 405.2 485.9 L 433.4 486.5 L 461.6 491.7 L 489.9 498.4 L 518.1 503.3 L 546.3 505.3 L 574.5 506.0 L 602.7 507.3 L 630.9 509.4 L 659.1 511.4 L 687.3 512.7 L 715.5 514.5 L 743.7 519.2 L 771.9 527.7 L 800.1 538.3 L 828.3 547.2 L 856.5 551.7 L 884.7 551.8 L 912.9 549.5 L 941.2 546.2 L 969.4 541.9 L 997.6 535.7 L 1025.8 528.1 L 1054.0 521.2 L 1082.2 517.7 L 1110.4 517.8 L 1138.6 519.3 L 1166.8 518.8 L 1166.8 757.6 L 207.8 757.6 Z" fill="#4f4c39" opacity="0.92"/>
    <rect x="207.8" y="590.6" width="959.0" height="167.0" fill="#4b4936" opacity="0.88"/>
  </g>
  <rect x="447.5" y="244.3" width="1.5" height="513.3" fill="#211c17" opacity="0.7"/> <rect x="687.3" y="244.3" width="1.5" height="513.3" fill="#211c17" opacity="0.7"/> <rect x="927.0" y="244.3" width="1.5" height="513.3" fill="#211c17" opacity="0.7"/>
  <rect x="207.8" y="244.3" width="959.0" height="513.3" fill="none" stroke="#9a8256" stroke-width="1.5" opacity="0.45"/>

  <!-- the sill -->
  <rect x="186.8" y="757.6" width="1001.0" height="10.5" fill="#e8d3ad" opacity="0.24"/>

  <!-- floor, and the light that falls across it -->
  <rect y="794" width="1400" height="256" fill="#171310"/>
  <path d="M 208 794 L 1167 794 L 1598 1050 L -128 1050 Z" fill="url(#spill-imagesstaystheoldpresssvg)"/>
  <rect y="794" width="1400" height="1" fill="#9a8256" opacity="0.3"/>

  <!-- foreground -->
  <rect x="784" y="655" width="574" height="139" fill="#171310" opacity="0.94"/>
  <rect x="784" y="655" width="574" height="1.5" fill="#e8d3ad" opacity="0.2"/>
  <rect x="700" y="463" width="2" height="332" fill="#171310" opacity="0.86"/>
  <circle cx="701" cy="463" r="32" fill="#e8d3ad" opacity="0.2"/>


  <rect width="1400" height="1050" fill="url(#vig-imagesstaystheoldpresssvg)"/>
</svg>
